# Blender 4.5.3 LTS
# www.blender.org
mtllib CG.mtl
o Cube
v 0.373278 0.149065 0.020479
v 0.373278 0.336929 -0.007199
v -0.373698 0.149065 0.020479
v -0.373698 0.336929 -0.007199
v 0.373278 0.330613 0.312759
v 0.373278 0.391189 0.513570
v 0.373278 0.215547 0.730043
v 0.373278 -0.104508 0.739819
v 0.373278 -0.353519 0.539549
v 0.373278 -0.314163 0.170267
v 0.373278 -0.130258 0.228106
v 0.373278 -0.214724 0.475714
v 0.373278 -0.080859 0.603677
v 0.373278 0.166610 0.580584
v 0.373278 0.243547 0.473979
v 0.373278 0.182415 0.273785
v 0.373278 0.270609 -0.494928
v 0.373278 0.365790 -0.322638
v 0.373278 0.336929 -0.007199
v 0.373278 0.149065 0.020479
v 0.373278 -0.228397 -0.103602
v 0.373278 -0.367968 -0.492359
v 0.373278 -0.161252 -0.584426
v 0.373278 0.059013 -0.461967
v 0.373278 0.047345 -0.211998
v 0.373278 -0.132534 -0.252869
v 0.373278 -0.133730 -0.435498
v 0.373278 -0.255456 -0.435060
v 0.373278 -0.182474 -0.213963
v 0.373278 0.120445 -0.110580
v 0.373278 0.223795 -0.142585
v 0.373278 0.219448 -0.320699
v 0.373278 0.330613 0.312759
v 0.373278 0.391189 0.513570
v 0.373278 0.215547 0.730043
v 0.373278 -0.104508 0.739819
v 0.373278 -0.353519 0.539549
v 0.373278 -0.314163 0.170267
v 0.373278 -0.130258 0.228106
v 0.373278 -0.214724 0.475714
v 0.373278 -0.080859 0.603677
v 0.373278 0.166610 0.580584
v 0.373278 0.243547 0.473979
v 0.373278 0.182415 0.273785
v 0.373278 0.270609 -0.494928
v 0.373278 0.365790 -0.322638
v 0.373278 0.336929 -0.007199
v 0.373278 0.149065 0.020479
v 0.373278 -0.228397 -0.103602
v 0.373278 -0.367968 -0.492359
v 0.373278 -0.161252 -0.584426
v 0.373278 0.059013 -0.461967
v 0.373278 0.047345 -0.211998
v 0.373278 -0.132534 -0.252869
v 0.373278 -0.133730 -0.435498
v 0.373278 -0.255456 -0.435060
v 0.373278 -0.182474 -0.213963
v 0.373278 0.120445 -0.110580
v 0.373278 0.223795 -0.142585
v 0.373278 0.219448 -0.320699
v 0.373278 0.330613 0.312759
v 0.373278 0.391189 0.513570
v 0.373278 0.215547 0.730043
v 0.373278 -0.104508 0.739819
v 0.373278 -0.353519 0.539549
v 0.373278 -0.314163 0.170267
v 0.373278 -0.130258 0.228106
v 0.373278 -0.214724 0.475714
v 0.373278 -0.080859 0.603677
v 0.373278 0.166610 0.580584
v 0.373278 0.243547 0.473979
v 0.373278 0.182415 0.273785
v 0.373278 0.270609 -0.494928
v 0.373278 0.365790 -0.322638
v 0.373278 0.336929 -0.007199
v 0.373278 0.149065 0.020479
v 0.373278 -0.228397 -0.103602
v 0.373278 -0.367968 -0.492359
v 0.373278 -0.161252 -0.584426
v 0.373278 0.059013 -0.461967
v 0.373278 0.047345 -0.211998
v 0.373278 -0.132534 -0.252869
v 0.373278 -0.133730 -0.435498
v 0.373278 -0.255456 -0.435060
v 0.373278 -0.182474 -0.213963
v 0.373278 0.120445 -0.110580
v 0.373278 0.223795 -0.142585
v 0.373278 0.219448 -0.320699
v -0.373698 0.330613 0.312759
v -0.373698 0.391189 0.513570
v -0.373698 0.215547 0.730043
v -0.373698 -0.104508 0.739819
v -0.373698 -0.353519 0.539549
v -0.373698 -0.314163 0.170267
v -0.373698 -0.130258 0.228106
v -0.373698 -0.214724 0.475714
v -0.373698 -0.080859 0.603677
v -0.373698 0.166610 0.580584
v -0.373698 0.243547 0.473979
v -0.373698 0.182415 0.273785
v -0.373698 0.270609 -0.494928
v -0.373698 0.365790 -0.322638
v -0.373698 0.336929 -0.007199
v -0.373698 0.149065 0.020479
v -0.373698 -0.228397 -0.103602
v -0.373698 -0.367968 -0.492359
v -0.373698 -0.161252 -0.584426
v -0.373698 0.059013 -0.461967
v -0.373698 0.047345 -0.211998
v -0.373698 -0.132534 -0.252869
v -0.373698 -0.133730 -0.435498
v -0.373698 -0.255456 -0.435060
v -0.373698 -0.182474 -0.213963
v -0.373698 0.120445 -0.110580
v -0.373698 0.223795 -0.142585
v -0.373698 0.219448 -0.320699
v 0.373278 0.330613 0.312759
v 0.373278 0.391189 0.513570
v 0.373278 0.215547 0.730043
v 0.373278 -0.104508 0.739819
v 0.373278 -0.353519 0.539549
v 0.373278 -0.314163 0.170267
v 0.373278 -0.130258 0.228106
v 0.373278 -0.214724 0.475714
v 0.373278 -0.080859 0.603677
v 0.373278 0.166610 0.580584
v 0.373278 0.243547 0.473979
v 0.373278 0.182415 0.273785
v 0.373278 0.270609 -0.494928
v 0.373278 0.365790 -0.322638
v 0.373278 0.336929 -0.007199
v 0.373278 0.149065 0.020479
v 0.373278 -0.228397 -0.103602
v 0.373278 -0.367968 -0.492359
v 0.373278 -0.161252 -0.584426
v 0.373278 0.059013 -0.461967
v 0.373278 0.047345 -0.211998
v 0.373278 -0.132534 -0.252869
v 0.373278 -0.133730 -0.435498
v 0.373278 -0.255456 -0.435060
v 0.373278 -0.182474 -0.213963
v 0.373278 0.120445 -0.110580
v 0.373278 0.223795 -0.142585
v 0.373278 0.219448 -0.320699
vn -0.0000 -0.9412 0.3379
vn -0.0000 -0.4068 -0.9135
vn -0.0000 0.8753 -0.4836
vn -0.0000 0.1458 0.9893
vn -0.0000 0.9958 0.0911
vn -0.0000 -0.3123 0.9500
vn -0.0000 0.4859 -0.8740
vn 1.0000 -0.0000 -0.0000
vn -0.0000 0.9989 0.0466
vn -0.0000 -0.2216 0.9751
vn -0.0000 -1.0000 0.0065
vn -0.0000 0.0036 1.0000
vn -0.0000 0.9496 -0.3135
vn -0.0000 0.3230 -0.9464
vn -0.0000 -0.2958 -0.9552
vn -0.0000 -0.9997 0.0244
vn -0.0000 -0.9595 -0.2817
vn -1.0000 -0.0000 -0.0000
vn -0.0000 0.2543 -0.9671
vn -0.0000 0.9574 -0.2888
vn -0.0000 0.7765 0.6301
vn -0.0000 0.0305 0.9995
vn -0.0000 -0.6267 0.7792
vn -0.0000 -0.9944 -0.1060
vn -0.0000 0.3000 -0.9539
vn -0.0000 0.9464 0.3229
vn -0.0000 0.6910 -0.7229
vn -0.0000 -0.0929 -0.9957
vn -0.0000 -0.8109 -0.5852
vn -0.0000 -0.9564 0.2920
vt 0.000000 0.000000
vt 0.447023 0.611087
vt 0.413963 0.558877
vt 0.457900 0.596265
vt 0.481970 0.706072
vt 0.540587 0.702971
vt 0.476368 0.724356
vt 0.462927 0.546513
vt 0.515100 0.562959
vt 0.469446 0.566514
vt 0.512337 0.596529
vt 0.469729 0.591040
vt 0.580929 0.624033
vt 0.536431 0.627750
vt 0.554132 0.605851
vt 0.529652 0.610149
vt 0.565220 0.558533
vt 0.587766 0.581671
vt 0.553102 0.581931
vt 0.440613 0.566573
vt 0.558810 0.688654
vt 0.544330 0.661768
vt 0.579433 0.667003
vt 0.593782 0.693971
vt 0.552178 0.723043
vt 0.417385 0.697460
vt 0.426708 0.647866
vt 0.450261 0.688887
vt 0.470268 0.655634
s 0
usemtl Material
f 105/1/1 134/1/1 133/1/1
f 135/1/2 106/1/2 107/1/2
f 101/1/3 130/1/3 129/1/3
f 103/1/4 132/1/4 131/1/4
f 103/1/5 130/1/5 102/1/5
f 104/1/6 133/1/6 132/1/6
f 108/1/7 135/1/7 107/1/7
f 21/2/8 22/3/8 29/4/8
f 13/5/8 14/6/8 8/7/8
f 109/1/9 136/1/9 108/1/9
f 110/1/10 137/1/10 109/1/10
f 111/1/11 138/1/11 110/1/11
f 112/1/12 139/1/12 111/1/12
f 113/1/13 140/1/13 112/1/13
f 114/1/14 141/1/14 113/1/14
f 115/1/15 142/1/15 114/1/15
f 116/1/16 143/1/16 115/1/16
f 129/1/17 116/1/17 101/1/17
f 113/1/18 106/1/18 105/1/18
f 89/1/19 128/1/19 100/1/19
f 90/1/20 117/1/20 89/1/20
f 91/1/21 118/1/21 90/1/21
f 92/1/22 119/1/22 91/1/22
f 93/1/23 120/1/23 92/1/23
f 94/1/24 121/1/24 93/1/24
f 95/1/25 122/1/25 94/1/25
f 96/1/26 123/1/26 95/1/26
f 125/1/27 96/1/27 97/1/27
f 98/1/28 125/1/28 97/1/28
f 99/1/29 126/1/29 98/1/29
f 100/1/30 127/1/30 99/1/30
f 98/1/18 97/1/18 92/1/18
f 105/1/1 106/1/1 134/1/1
f 135/1/2 134/1/2 106/1/2
f 101/1/3 102/1/3 130/1/3
f 103/1/4 104/1/4 132/1/4
f 103/1/5 131/1/5 130/1/5
f 104/1/6 105/1/6 133/1/6
f 108/1/7 136/1/7 135/1/7
f 23/8/8 24/9/8 27/10/8
f 24/9/8 25/11/8 26/12/8
f 27/10/8 24/9/8 26/12/8
f 19/13/8 20/14/8 31/15/8
f 20/14/8 21/2/8 30/16/8
f 17/17/8 18/18/8 32/19/8
f 18/18/8 19/13/8 31/15/8
f 31/15/8 32/19/8 18/18/8
f 22/3/8 23/8/8 28/20/8
f 23/8/8 27/10/8 28/20/8
f 30/16/8 31/15/8 20/14/8
f 22/3/8 28/20/8 29/4/8
f 29/4/8 30/16/8 21/2/8
f 15/21/8 16/22/8 5/23/8
f 5/23/8 6/24/8 15/21/8
f 6/24/8 7/25/8 14/6/8
f 15/21/8 6/24/8 14/6/8
f 7/25/8 8/7/8 14/6/8
f 8/7/8 9/26/8 13/5/8
f 9/26/8 10/27/8 12/28/8
f 10/27/8 11/29/8 12/28/8
f 9/26/8 12/28/8 13/5/8
f 109/1/9 137/1/9 136/1/9
f 110/1/10 138/1/10 137/1/10
f 111/1/11 139/1/11 138/1/11
f 112/1/12 140/1/12 139/1/12
f 113/1/13 141/1/13 140/1/13
f 114/1/14 142/1/14 141/1/14
f 115/1/15 143/1/15 142/1/15
f 116/1/16 144/1/16 143/1/16
f 129/1/17 144/1/17 116/1/17
f 102/1/18 101/1/18 116/1/18
f 102/1/18 116/1/18 115/1/18
f 104/1/18 103/1/18 115/1/18
f 103/1/18 102/1/18 115/1/18
f 108/1/18 107/1/18 111/1/18
f 107/1/18 106/1/18 112/1/18
f 111/1/18 107/1/18 112/1/18
f 110/1/18 109/1/18 108/1/18
f 111/1/18 110/1/18 108/1/18
f 104/1/18 115/1/18 114/1/18
f 105/1/18 104/1/18 114/1/18
f 113/1/18 112/1/18 106/1/18
f 105/1/18 114/1/18 113/1/18
f 89/1/19 117/1/19 128/1/19
f 90/1/20 118/1/20 117/1/20
f 91/1/21 119/1/21 118/1/21
f 92/1/22 120/1/22 119/1/22
f 93/1/23 121/1/23 120/1/23
f 94/1/24 122/1/24 121/1/24
f 95/1/25 123/1/25 122/1/25
f 96/1/26 124/1/26 123/1/26
f 125/1/27 124/1/27 96/1/27
f 98/1/28 126/1/28 125/1/28
f 99/1/29 127/1/29 126/1/29
f 100/1/30 128/1/30 127/1/30
f 89/1/18 100/1/18 99/1/18
f 90/1/18 89/1/18 99/1/18
f 92/1/18 91/1/18 98/1/18
f 91/1/18 90/1/18 98/1/18
f 95/1/18 94/1/18 96/1/18
f 94/1/18 93/1/18 96/1/18
f 90/1/18 99/1/18 98/1/18
f 97/1/18 96/1/18 93/1/18
f 97/1/18 93/1/18 92/1/18
l 2 4
l 3 4
l 20 14
l 5 33
l 6 34
l 7 35
l 8 36
l 9 37
l 10 38
l 11 39
l 12 40
l 13 41
l 14 42
l 15 43
l 16 44
l 17 45
l 18 46
l 19 47
l 20 48
l 21 49
l 22 50
l 23 51
l 24 52
l 25 53
l 26 54
l 27 55
l 28 56
l 29 57
l 30 58
l 31 59
l 32 60
l 33 61
l 34 62
l 35 63
l 36 64
l 37 65
l 38 66
l 39 67
l 40 68
l 41 69
l 42 70
l 43 71
l 44 72
l 45 73
l 46 74
l 47 75
l 48 76
l 49 77
l 50 78
l 51 79
l 52 80
l 53 81
l 54 82
l 55 83
l 56 84
l 57 85
l 58 86
l 59 87
l 60 88
l 61 89
l 62 90
l 63 91
l 64 92
l 65 93
l 66 94
l 67 95
l 68 96
l 69 97
l 70 98
l 71 99
l 72 100
l 73 101
l 74 102
l 75 103
l 76 104
l 77 105
l 78 106
l 79 107
l 80 108
l 81 109
l 82 110
l 83 111
l 84 112
l 85 113
l 86 114
l 87 115
l 88 116
l 61 117
l 62 118
l 63 119
l 64 120
l 65 121
l 66 122
l 67 123
l 68 124
l 69 125
l 70 126
l 71 127
l 72 128
l 73 129
l 74 130
l 75 131
l 76 132
l 77 133
l 78 134
l 79 135
l 80 136
l 81 137
l 82 138
l 83 139
l 84 140
l 85 141
l 86 142
l 87 143
l 88 144
